<svg xmlns="http://www.w3.org/2000/svg" width="190.326" height="62.786" viewBox="0 0 50.357 16.612"><defs><clipPath clipPathUnits="userSpaceOnUse" id="a"><path d="m163.786 474.402 5.725-8.958 14.083 2.249-7.451 6.709z"/></clipPath><clipPath clipPathUnits="userSpaceOnUse" id="c"><path d="M268.356 463.676s-50.836-10.021-58.295-11.728a18.707 18.707 0 0 0-2.775-.421l-24.161-4.988 2.929-3.864 8.332-5.824s10.135-5.194 24.331-3.546c3.211.373 60.54 10.844 66.854 11.95 4.854.85 9.941 4.024 12.834 6.63l-1.936 7.99c-.301.116-.606.225-.912.316a65.08 65.08 0 0 0-5.818 2.017s-1.08 2.814-7.137 3.191c-.499.031-1.013.045-1.535.045-5.817 0-12.711-1.768-12.711-1.768"/></clipPath><clipPath clipPathUnits="userSpaceOnUse" id="e"><path d="m172.753 460.123 7.803-10.193 2.569-3.391 24.161 4.988c-5.568-.399-8.245 2.258-8.245 2.258l-10 9.003z"/></clipPath><clipPath clipPathUnits="userSpaceOnUse" id="g"><path d="M0 841.89h595.28V0H0Z"/></clipPath><clipPath clipPathUnits="userSpaceOnUse" id="h"><path d="m242.984 451.61-.793-.13a1.084 1.084 0 0 1-.887-1.241l.134-.792a1.079 1.079 0 0 1 1.238-.885l.792.13c.584.099.983.657.886 1.239l-.133.793a1.08 1.08 0 0 1-1.062.901c-.058 0-.116-.005-.175-.015"/></clipPath><clipPath clipPathUnits="userSpaceOnUse" id="j"><path d="m247.396 452.276-.792-.132a1.08 1.08 0 0 1-.886-1.238l.133-.794a1.078 1.078 0 0 1 1.239-.883l.792.13c.585.097.982.654.886 1.24l-.133.792c-.087.525-.545.9-1.061.9-.059 0-.118-.005-.178-.015"/></clipPath><clipPath clipPathUnits="userSpaceOnUse" id="l"><path d="m251.581 452.992-.791-.131a1.08 1.08 0 0 1-.887-1.238l.132-.794a1.08 1.08 0 0 1 1.24-.885l.791.132c.585.097.983.653.886 1.238l-.132.794a1.082 1.082 0 0 1-1.065.899c-.057 0-.116-.005-.174-.015"/></clipPath><clipPath clipPathUnits="userSpaceOnUse" id="n"><path d="m255.579 453.656-.791-.131a1.082 1.082 0 0 1-.887-1.239l.133-.793a1.079 1.079 0 0 1 1.239-.885l.792.132c.584.096.982.654.887 1.238l-.133.793a1.08 1.08 0 0 1-1.061.9 1.09 1.09 0 0 1-.179-.015"/></clipPath><clipPath clipPathUnits="userSpaceOnUse" id="p"><path d="m259.563 454.326-.792-.131a1.081 1.081 0 0 1-.886-1.239l.132-.793a1.08 1.08 0 0 1 1.239-.885l.793.131c.583.098.982.654.885 1.239l-.133.794a1.078 1.078 0 0 1-1.061.899c-.058 0-.118-.005-.177-.015"/></clipPath><clipPath clipPathUnits="userSpaceOnUse" id="r"><path d="m263.574 454.964-.791-.132a1.082 1.082 0 0 1-.887-1.238l.133-.792a1.08 1.08 0 0 1 1.239-.887l.792.132c.584.097.983.655.887 1.238l-.134.792a1.078 1.078 0 0 1-1.061.901c-.059 0-.118-.005-.178-.014"/></clipPath><clipPath clipPathUnits="userSpaceOnUse" id="t"><path d="m267.706 455.693-.792-.13a1.084 1.084 0 0 1-.888-1.239l.134-.792a1.08 1.08 0 0 1 1.239-.887l.792.131c.584.099.982.655.886 1.239l-.133.794a1.078 1.078 0 0 1-1.061.898c-.058 0-.118-.004-.177-.014"/></clipPath><clipPath clipPathUnits="userSpaceOnUse" id="v"><path d="m271.827 456.314-.792-.131a1.085 1.085 0 0 1-.887-1.239l.134-.793a1.078 1.078 0 0 1 1.238-.885l.792.131c.584.097.983.655.887 1.237l-.133.794a1.08 1.08 0 0 1-1.064.9c-.058 0-.116-.005-.175-.014"/></clipPath><clipPath clipPathUnits="userSpaceOnUse" id="x"><path d="m164.776 449.374 18.099-2.263 19.537 3.52-4.882.531-21.778.152z"/></clipPath><clipPath clipPathUnits="userSpaceOnUse" id="z"><path d="M0 841.89h595.28V0H0Z"/></clipPath><clipPath clipPathUnits="userSpaceOnUse" id="A"><path d="M225.24 444.45c-11.341-1.024-17.276-2.303-17.276-2.303-1.941-2.035 10.48-1.454 18.966-3.291 4.401-.953 9.677-1.821 14.588-2.005 12.301 1.152 30.066 4.971 34.29 6.266 4.222 1.295-.982 4.55-2.79 5.286-.163.067-.591.097-1.245.097-6.608 0-36.211-3.12-46.533-4.05"/></clipPath><clipPath clipPathUnits="userSpaceOnUse" id="C"><path d="M0 841.89h595.28V0H0Z"/></clipPath><clipPath clipPathUnits="userSpaceOnUse" id="D"><path d="M263.78 443.576c-4.118-1.611-1.45-3.095.598-3.256 2.047-.161 10.385.596 10.385.596l-1.035 4.524s-5.822-.253-9.948-1.864"/></clipPath><clipPath clipPathUnits="userSpaceOnUse" id="F"><path d="m275.986 447.616-7.347-1.194-1.812-.295 1.135-6.975 9.045 1.472c.477.076.925.337 1.233.762.306.424.411.933.331 1.411l-.545 3.348c-.07.449-.317.872-.712 1.16a1.796 1.796 0 0 1-1.041.334c-.096 0-.192-.008-.287-.023"/></clipPath><clipPath clipPathUnits="userSpaceOnUse" id="H"><path d="M239.602 441.633c-4.35-1.757-1.502-3.298.673-3.444 2.172-.15 11.003.754 11.003.754l-1.148 4.781s-6.173-.335-10.528-2.091"/></clipPath><clipPath clipPathUnits="userSpaceOnUse" id="J"><path d="m252.423 445.643-7.831-.946-1.935-.234.899-7.436 9.644 1.167a2 2 0 0 1 1.752 2.235l-.431 3.57a1.864 1.864 0 0 1-.707 1.256 1.865 1.865 0 0 1-1.16.402c-.078 0-.155-.005-.231-.014"/></clipPath><linearGradient x1="0" y1="0" x2="1" y2="0" gradientUnits="userSpaceOnUse" gradientTransform="matrix(-9.92409 48.88571 40.14586 10.15002 188.81 396.565)" spreadMethod="pad" id="b"><stop style="stop-opacity:1;stop-color:#838f96" offset="0"/><stop style="stop-opacity:1;stop-color:#838f96" offset=".234"/><stop style="stop-opacity:1;stop-color:#e4e9ec" offset=".706"/><stop style="stop-opacity:1;stop-color:#e4e9ec" offset=".849"/><stop style="stop-opacity:1;stop-color:#e4e9ec" offset="1"/></linearGradient><linearGradient x1="0" y1="0" x2="1" y2="0" gradientUnits="userSpaceOnUse" gradientTransform="matrix(-8.63257 42.52373 34.92126 8.8291 246.573 420.602)" spreadMethod="pad" id="d"><stop style="stop-opacity:1;stop-color:#838f96" offset="0"/><stop style="stop-opacity:1;stop-color:#838f96" offset=".234"/><stop style="stop-opacity:1;stop-color:#e4e9ec" offset=".706"/><stop style="stop-opacity:1;stop-color:#e4e9ec" offset=".849"/><stop style="stop-opacity:1;stop-color:#e4e9ec" offset="1"/></linearGradient><linearGradient x1="0" y1="0" x2="1" y2="0" gradientUnits="userSpaceOnUse" gradientTransform="matrix(28.37231 -36.35332 -29.06384 -32.91064 185.844 461.029)" spreadMethod="pad" id="f"><stop style="stop-opacity:1;stop-color:#e4e9ec" offset="0"/><stop style="stop-opacity:1;stop-color:#e4e9ec" offset=".516"/><stop style="stop-opacity:1;stop-color:#838f96" offset="1"/></linearGradient><linearGradient x1="0" y1="0" x2="1" y2="0" gradientUnits="userSpaceOnUse" gradientTransform="scale(3.00878 -3.00878) rotate(84.387 123.11 -30.558)" spreadMethod="pad" id="i"><stop style="stop-opacity:1;stop-color:#838f96" offset="0"/><stop style="stop-opacity:1;stop-color:#838f96" offset=".234"/><stop style="stop-opacity:1;stop-color:#e4e9ec" offset=".706"/><stop style="stop-opacity:1;stop-color:#e4e9ec" offset=".849"/><stop style="stop-opacity:1;stop-color:#e4e9ec" offset="1"/></linearGradient><linearGradient x1="0" y1="0" x2="1" y2="0" gradientUnits="userSpaceOnUse" gradientTransform="scale(3.0078 -3.0078) rotate(84.388 124.005 -29.869)" spreadMethod="pad" id="k"><stop style="stop-opacity:1;stop-color:#838f96" offset="0"/><stop style="stop-opacity:1;stop-color:#838f96" offset=".234"/><stop style="stop-opacity:1;stop-color:#e4e9ec" offset=".706"/><stop style="stop-opacity:1;stop-color:#e4e9ec" offset=".849"/><stop style="stop-opacity:1;stop-color:#e4e9ec" offset="1"/></linearGradient><linearGradient x1="0" y1="0" x2="1" y2="0" gradientUnits="userSpaceOnUse" gradientTransform="matrix(.2942 -2.99387 -2.99387 -.2942 251.28 452.965)" spreadMethod="pad" id="m"><stop style="stop-opacity:1;stop-color:#838f96" offset="0"/><stop style="stop-opacity:1;stop-color:#838f96" offset=".234"/><stop style="stop-opacity:1;stop-color:#e4e9ec" offset=".706"/><stop style="stop-opacity:1;stop-color:#e4e9ec" offset=".849"/><stop style="stop-opacity:1;stop-color:#e4e9ec" offset="1"/></linearGradient><linearGradient x1="0" y1="0" x2="1" y2="0" gradientUnits="userSpaceOnUse" gradientTransform="scale(3.0078 -3.0078) rotate(84.388 125.619 -28.598)" spreadMethod="pad" id="o"><stop style="stop-opacity:1;stop-color:#838f96" offset="0"/><stop style="stop-opacity:1;stop-color:#838f96" offset=".234"/><stop style="stop-opacity:1;stop-color:#e4e9ec" offset=".706"/><stop style="stop-opacity:1;stop-color:#e4e9ec" offset=".849"/><stop style="stop-opacity:1;stop-color:#e4e9ec" offset="1"/></linearGradient><linearGradient x1="0" y1="0" x2="1" y2="0" gradientUnits="userSpaceOnUse" gradientTransform="matrix(.2942 -2.99387 -2.99387 -.2942 259.262 454.3)" spreadMethod="pad" id="q"><stop style="stop-opacity:1;stop-color:#838f96" offset="0"/><stop style="stop-opacity:1;stop-color:#838f96" offset=".234"/><stop style="stop-opacity:1;stop-color:#e4e9ec" offset=".706"/><stop style="stop-opacity:1;stop-color:#e4e9ec" offset=".849"/><stop style="stop-opacity:1;stop-color:#e4e9ec" offset="1"/></linearGradient><linearGradient x1="0" y1="0" x2="1" y2="0" gradientUnits="userSpaceOnUse" gradientTransform="scale(3.00829 -3.00829) rotate(84.388 127.167 -27.345)" spreadMethod="pad" id="s"><stop style="stop-opacity:1;stop-color:#838f96" offset="0"/><stop style="stop-opacity:1;stop-color:#838f96" offset=".234"/><stop style="stop-opacity:1;stop-color:#e4e9ec" offset=".706"/><stop style="stop-opacity:1;stop-color:#e4e9ec" offset=".849"/><stop style="stop-opacity:1;stop-color:#e4e9ec" offset="1"/></linearGradient><linearGradient x1="0" y1="0" x2="1" y2="0" gradientUnits="userSpaceOnUse" gradientTransform="scale(3.0078 -3.0078) rotate(84.388 128.008 -26.713)" spreadMethod="pad" id="u"><stop style="stop-opacity:1;stop-color:#838f96" offset="0"/><stop style="stop-opacity:1;stop-color:#838f96" offset=".234"/><stop style="stop-opacity:1;stop-color:#e4e9ec" offset=".706"/><stop style="stop-opacity:1;stop-color:#e4e9ec" offset=".849"/><stop style="stop-opacity:1;stop-color:#e4e9ec" offset="1"/></linearGradient><linearGradient x1="0" y1="0" x2="1" y2="0" gradientUnits="userSpaceOnUse" gradientTransform="scale(3.0078 -3.0078) rotate(84.388 128.807 -26.06)" spreadMethod="pad" id="w"><stop style="stop-opacity:1;stop-color:#838f96" offset="0"/><stop style="stop-opacity:1;stop-color:#838f96" offset=".234"/><stop style="stop-opacity:1;stop-color:#e4e9ec" offset=".706"/><stop style="stop-opacity:1;stop-color:#e4e9ec" offset=".849"/><stop style="stop-opacity:1;stop-color:#e4e9ec" offset="1"/></linearGradient><linearGradient x1="0" y1="0" x2="1" y2="0" gradientUnits="userSpaceOnUse" gradientTransform="scale(34.32898 -34.32898) rotate(64.535 13.348 -2.783)" spreadMethod="pad" id="y"><stop style="stop-opacity:1;stop-color:#8e9ba3" offset="0"/><stop style="stop-opacity:1;stop-color:#8e9ba3" offset=".19"/><stop style="stop-opacity:1;stop-color:#cacfd2" offset=".622"/><stop style="stop-opacity:1;stop-color:#cacfd2" offset=".753"/><stop style="stop-opacity:1;stop-color:#cacfd2" offset="1"/></linearGradient><linearGradient x1="0" y1="0" x2="1" y2="0" gradientUnits="userSpaceOnUse" gradientTransform="scale(77.61478 -77.61478) rotate(79.891 5.24 -1.31)" spreadMethod="pad" id="B"><stop style="stop-opacity:1;stop-color:#7d888e" offset="0"/><stop style="stop-opacity:1;stop-color:#7d888e" offset=".269"/><stop style="stop-opacity:1;stop-color:#e4e9ec" offset=".744"/><stop style="stop-opacity:1;stop-color:#e4e9ec" offset=".795"/><stop style="stop-opacity:1;stop-color:#e4e9ec" offset="1"/></linearGradient><linearGradient x1="0" y1="0" x2="1" y2="0" gradientUnits="userSpaceOnUse" gradientTransform="matrix(-2.7259 16.6849 12.84456 2.56714 268.748 437.943)" spreadMethod="pad" id="E"><stop style="stop-opacity:1;stop-color:#838f96" offset="0"/><stop style="stop-opacity:1;stop-color:#838f96" offset=".234"/><stop style="stop-opacity:1;stop-color:#e4e9ec" offset=".706"/><stop style="stop-opacity:1;stop-color:#e4e9ec" offset=".849"/><stop style="stop-opacity:1;stop-color:#e4e9ec" offset="1"/></linearGradient><linearGradient x1="0" y1="0" x2="1" y2="0" gradientUnits="userSpaceOnUse" gradientTransform="matrix(-1.79002 10.91573 10.91573 1.79004 273.545 439.29)" spreadMethod="pad" id="G"><stop style="stop-opacity:1;stop-color:#838f96" offset="0"/><stop style="stop-opacity:1;stop-color:#838f96" offset=".234"/><stop style="stop-opacity:1;stop-color:#e4e9ec" offset=".706"/><stop style="stop-opacity:1;stop-color:#e4e9ec" offset=".849"/><stop style="stop-opacity:1;stop-color:#e4e9ec" offset="1"/></linearGradient><linearGradient x1="0" y1="0" x2="1" y2="0" gradientUnits="userSpaceOnUse" gradientTransform="matrix(-3.08214 17.64456 13.58504 2.86893 244.933 435.723)" spreadMethod="pad" id="I"><stop style="stop-opacity:1;stop-color:#838f96" offset="0"/><stop style="stop-opacity:1;stop-color:#838f96" offset=".234"/><stop style="stop-opacity:1;stop-color:#e4e9ec" offset=".706"/><stop style="stop-opacity:1;stop-color:#e4e9ec" offset=".849"/><stop style="stop-opacity:1;stop-color:#e4e9ec" offset="1"/></linearGradient><linearGradient x1="0" y1="0" x2="1" y2="0" gradientUnits="userSpaceOnUse" gradientTransform="scale(-11.72178 11.72178) rotate(83.031 -31.696 6.616)" spreadMethod="pad" id="K"><stop style="stop-opacity:1;stop-color:#838f96" offset="0"/><stop style="stop-opacity:1;stop-color:#838f96" offset=".234"/><stop style="stop-opacity:1;stop-color:#e4e9ec" offset=".706"/><stop style="stop-opacity:1;stop-color:#e4e9ec" offset=".849"/><stop style="stop-opacity:1;stop-color:#e4e9ec" offset="1"/></linearGradient></defs><g clip-path="url(#a)" transform="matrix(.35278 0 0 -.35278 -56.78 168.358)"><path style="fill:url(#b);stroke:none" d="m163.786 474.402 5.725-8.958 14.083 2.249-7.451 6.709z"/></g><g clip-path="url(#c)" transform="matrix(.35278 0 0 -.35278 -56.78 168.358)"><path style="fill:url(#d);stroke:none" d="M268.356 463.676s-50.836-10.021-58.295-11.728a18.707 18.707 0 0 0-2.775-.421l-24.161-4.988 2.929-3.864 8.332-5.824s10.135-5.194 24.331-3.546c3.211.373 60.54 10.844 66.854 11.95 4.854.85 9.941 4.024 12.834 6.63l-1.936 7.99c-.301.116-.606.225-.912.316a65.08 65.08 0 0 0-5.818 2.017s-1.08 2.814-7.137 3.191c-.499.031-1.013.045-1.535.045-5.817 0-12.711-1.768-12.711-1.768"/></g><g clip-path="url(#e)" transform="matrix(.35278 0 0 -.35278 -56.78 168.358)"><path style="fill:url(#f);stroke:none" d="m172.753 460.123 7.803-10.193 2.569-3.391 24.161 4.988c-5.568-.399-8.245 2.258-8.245 2.258l-10 9.003z"/></g><g clip-path="url(#g)" transform="matrix(.35278 0 0 -.35278 -56.78 168.358)"><path style="fill:#1c75bc;fill-opacity:1;fill-rule:nonzero;stroke:none" d="m0 0-14.082-2.249 3.242-5.321L5.448-4.905Z" transform="translate(183.593 467.693)"/></g><g clip-path="url(#h)" transform="matrix(.35278 0 0 -.35278 -56.78 168.358)"><path style="fill:url(#i);stroke:none" d="m242.984 451.61-.793-.13a1.084 1.084 0 0 1-.887-1.241l.134-.792a1.079 1.079 0 0 1 1.238-.885l.792.13c.584.099.983.657.886 1.239l-.133.793a1.08 1.08 0 0 1-1.062.901c-.058 0-.116-.005-.175-.015"/></g><g clip-path="url(#j)" transform="matrix(.35278 0 0 -.35278 -56.78 168.358)"><path style="fill:url(#k);stroke:none" d="m247.396 452.276-.792-.132a1.08 1.08 0 0 1-.886-1.238l.133-.794a1.078 1.078 0 0 1 1.239-.883l.792.13c.585.097.982.654.886 1.24l-.133.792c-.087.525-.545.9-1.061.9-.059 0-.118-.005-.178-.015"/></g><g clip-path="url(#l)" transform="matrix(.35278 0 0 -.35278 -56.78 168.358)"><path style="fill:url(#m);stroke:none" d="m251.581 452.992-.791-.131a1.08 1.08 0 0 1-.887-1.238l.132-.794a1.08 1.08 0 0 1 1.24-.885l.791.132c.585.097.983.653.886 1.238l-.132.794a1.082 1.082 0 0 1-1.065.899c-.057 0-.116-.005-.174-.015"/></g><g clip-path="url(#n)" transform="matrix(.35278 0 0 -.35278 -56.78 168.358)"><path style="fill:url(#o);stroke:none" d="m255.579 453.656-.791-.131a1.082 1.082 0 0 1-.887-1.239l.133-.793a1.079 1.079 0 0 1 1.239-.885l.792.132c.584.096.982.654.887 1.238l-.133.793a1.08 1.08 0 0 1-1.061.9 1.09 1.09 0 0 1-.179-.015"/></g><g clip-path="url(#p)" transform="matrix(.35278 0 0 -.35278 -56.78 168.358)"><path style="fill:url(#q);stroke:none" d="m259.563 454.326-.792-.131a1.081 1.081 0 0 1-.886-1.239l.132-.793a1.08 1.08 0 0 1 1.239-.885l.793.131c.583.098.982.654.885 1.239l-.133.794a1.078 1.078 0 0 1-1.061.899c-.058 0-.118-.005-.177-.015"/></g><g clip-path="url(#r)" transform="matrix(.35278 0 0 -.35278 -56.78 168.358)"><path style="fill:url(#s);stroke:none" d="m263.574 454.964-.791-.132a1.082 1.082 0 0 1-.887-1.238l.133-.792a1.08 1.08 0 0 1 1.239-.887l.792.132c.584.097.983.655.887 1.238l-.134.792a1.078 1.078 0 0 1-1.061.901c-.059 0-.118-.005-.178-.014"/></g><g clip-path="url(#t)" transform="matrix(.35278 0 0 -.35278 -56.78 168.358)"><path style="fill:url(#u);stroke:none" d="m267.706 455.693-.792-.13a1.084 1.084 0 0 1-.888-1.239l.134-.792a1.08 1.08 0 0 1 1.239-.887l.792.131c.584.099.982.655.886 1.239l-.133.794a1.078 1.078 0 0 1-1.061.898c-.058 0-.118-.004-.177-.014"/></g><g clip-path="url(#v)" transform="matrix(.35278 0 0 -.35278 -56.78 168.358)"><path style="fill:url(#w);stroke:none" d="m271.827 456.314-.792-.131a1.085 1.085 0 0 1-.887-1.239l.134-.793a1.078 1.078 0 0 1 1.238-.885l.792.131c.584.097.983.655.887 1.237l-.133.794a1.08 1.08 0 0 1-1.064.9c-.058 0-.116-.005-.175-.014"/></g><g clip-path="url(#x)" transform="matrix(.35278 0 0 -.35278 -56.78 168.358)"><path style="fill:url(#y);stroke:none" d="m164.776 449.374 18.099-2.263 19.537 3.52-4.882.531-21.778.152z"/></g><g clip-path="url(#z)" transform="matrix(.35278 0 0 -.35278 -56.78 168.358)"><path style="fill:#eaeef0;fill-opacity:1;fill-rule:nonzero;stroke:none" d="m0 0 21.779-.153 3.513-.383 1.29.295L21.7.29-.078.442l-10.977-1.94 1.156-.252Z" transform="translate(175.83 450.872)"/></g><g clip-path="url(#A)" transform="matrix(.35278 0 0 -.35278 -56.78 168.358)"><path style="fill:url(#B);stroke:none" d="M225.24 444.45c-11.341-1.024-17.276-2.303-17.276-2.303-1.941-2.035 10.48-1.454 18.966-3.291 4.401-.953 9.677-1.821 14.588-2.005 12.301 1.152 30.066 4.971 34.29 6.266 4.222 1.295-.982 4.55-2.79 5.286-.163.067-.591.097-1.245.097-6.608 0-36.211-3.12-46.533-4.05"/></g><g clip-path="url(#C)" transform="matrix(.35278 0 0 -.35278 -56.78 168.358)"><path style="fill:#e4e9ec;fill-opacity:1;fill-rule:nonzero;stroke:none" d="M0 0s5.935 1.28 17.277 2.303c11.342 1.023 45.969 4.69 47.777 3.954 1.318-.537 4.427-2.41 4.385-3.888.298 1.582-3.057 3.717-4.443 4.316-1.832.789-36.785-2.867-48.232-3.876C5.314 1.798-.673.485-.673.485c-.409-.449-.174-.777.52-1.041C-.241-.393-.202-.211 0 0" transform="translate(208.291 441.898)"/></g><g clip-path="url(#D)" transform="matrix(.35278 0 0 -.35278 -56.78 168.358)"><path style="fill:url(#E);stroke:none" d="M263.78 443.576c-4.118-1.611-1.45-3.095.598-3.256 2.047-.161 10.385.596 10.385.596l-1.035 4.524s-5.822-.253-9.948-1.864"/></g><g clip-path="url(#F)" transform="matrix(.35278 0 0 -.35278 -56.78 168.358)"><path style="fill:url(#G);stroke:none" d="m275.986 447.616-7.347-1.194-1.812-.295 1.135-6.975 9.045 1.472c.477.076.925.337 1.233.762.306.424.411.933.331 1.411l-.545 3.348c-.07.449-.317.872-.712 1.16a1.796 1.796 0 0 1-1.041.334c-.096 0-.192-.008-.287-.023"/></g><g clip-path="url(#H)" transform="matrix(.35278 0 0 -.35278 -56.78 168.358)"><path style="fill:url(#I);stroke:none" d="M239.602 441.633c-4.35-1.757-1.502-3.298.673-3.444 2.172-.15 11.003.754 11.003.754l-1.148 4.781s-6.173-.335-10.528-2.091"/></g><g clip-path="url(#J)" transform="matrix(.35278 0 0 -.35278 -56.78 168.358)"><path style="fill:url(#K);stroke:none" d="m252.423 445.643-7.831-.946-1.935-.234.899-7.436 9.644 1.167a2 2 0 0 1 1.752 2.235l-.431 3.57a1.864 1.864 0 0 1-.707 1.256 1.865 1.865 0 0 1-1.16.402c-.078 0-.155-.005-.231-.014"/></g><g><path style="fill:#9ed4f3;fill-opacity:1;fill-rule:nonzero;stroke:none" d="m0 0 8.561 1.352c-.158.289-.626.98-1.728 1.638L-.368 1.901Z" transform="matrix(.35278 0 0 -.35278 42.406 5.761)"/></g><g><path style="fill:#6ac7f1;fill-opacity:1;fill-rule:nonzero;stroke:none" d="M0 0a.973.973 0 0 0-.796-1.115l-.713-.117a.97.97 0 0 0-1.114.796l-.118.713a.97.97 0 0 0 .796 1.114l.713.117A.97.97 0 0 0-.118.713z" transform="matrix(.35278 0 0 -.35278 39.544 7.968)"/></g><g><path style="fill:#6ac7f1;fill-opacity:1;fill-rule:nonzero;stroke:none" d="M0 0a.971.971 0 0 0-.796-1.114l-.714-.119a.97.97 0 0 0-1.113.797l-.119.713a.971.971 0 0 0 .796 1.114l.714.117A.97.97 0 0 0-.119.711z" transform="matrix(.35278 0 0 -.35278 38.09 8.186)"/></g><g><path style="fill:#6ac7f1;fill-opacity:1;fill-rule:nonzero;stroke:none" d="M0 0a.971.971 0 0 0-.796-1.114l-.714-.119a.97.97 0 0 0-1.113.797l-.119.713a.972.972 0 0 0 .796 1.114l.714.119A.973.973 0 0 0-.118.713z" transform="matrix(.35278 0 0 -.35278 36.633 8.444)"/></g><g><path style="fill:#6ac7f1;fill-opacity:1;fill-rule:nonzero;stroke:none" d="M0 0a.973.973 0 0 0-.797-1.115l-.713-.118a.971.971 0 0 0-1.114.797l-.119.713a.972.972 0 0 0 .797 1.114l.713.119A.974.974 0 0 0-.119.713z" transform="matrix(.35278 0 0 -.35278 35.218 8.668)"/></g><g><path style="fill:#6ac7f1;fill-opacity:1;fill-rule:nonzero;stroke:none" d="M0 0a.972.972 0 0 0-.796-1.114l-.714-.119a.973.973 0 0 0-1.113.796l-.119.714a.972.972 0 0 0 .797 1.115l.712.118A.97.97 0 0 0-.119.713z" transform="matrix(.35278 0 0 -.35278 33.812 8.905)"/></g><g><path style="fill:#6ac7f1;fill-opacity:1;fill-rule:nonzero;stroke:none" d="M0 0a.971.971 0 0 0-.796-1.114l-.714-.119a.972.972 0 0 0-1.114.797l-.118.713a.97.97 0 0 0 .796 1.114l.713.119A.97.97 0 0 0-.119.713z" transform="matrix(.35278 0 0 -.35278 32.402 9.14)"/></g><g><path style="fill:#6ac7f1;fill-opacity:1;fill-rule:nonzero;stroke:none" d="M0 0a.97.97 0 0 0-.796-1.113l-.713-.118a.97.97 0 0 0-1.114.796l-.119.712a.972.972 0 0 0 .797 1.115l.713.118A.97.97 0 0 0-.119.715z" transform="matrix(.35278 0 0 -.35278 30.925 9.392)"/></g><g><path style="fill:#6ac7f1;fill-opacity:1;fill-rule:nonzero;stroke:none" d="M0 0a.972.972 0 0 0-.797-1.114l-.713-.119a.972.972 0 0 0-1.114.796l-.119.714a.972.972 0 0 0 .797 1.115l.712.117A.973.973 0 0 0-.119.713z" transform="matrix(.35278 0 0 -.35278 29.369 9.627)"/></g><g><path style="fill:#e4e9ec;fill-opacity:1;fill-rule:nonzero;stroke:none" d="m0 0 8.608.95c.475.053.963-.043 1.385-.284a1.825 1.825 0 0 1-.393.418 1.98 1.98 0 0 1-1.392.369L.339.585-1.603.369l.064-.54z" transform="matrix(.35278 0 0 -.35278 29.363 11.594)"/></g><g><path style="fill:#e4e9ec;fill-opacity:1;fill-rule:nonzero;stroke:none" d="m0 0 8.102 1.338c.447.077.915-.017 1.327-.271a1.976 1.976 0 0 1-.394.453 1.693 1.693 0 0 1-1.34.368L.288.664-1.542.36l.092-.601Z" transform="matrix(.35278 0 0 -.35278 37.896 11.112)"/></g><g><path style="fill:#231f20;fill-opacity:1;fill-rule:nonzero;stroke:none" d="m0 0 1.937-7.99c.87.786 1.551 1.52 1.955 2.121C5.482-3.504 2.954-1.149 0 0" transform="matrix(.35278 0 0 -.35278 47.81 6.114)"/></g></svg>